<svg width="43" height="32" viewBox="0 0 43 32" fill="none" xmlns="http://www.w3.org/2000/svg">
<path d="M6.76981 4.04C7.28824 2.84 8.15037 1.81746 9.24922 1.09927C10.3481 0.381073 11.6353 -0.00115856 12.9511 2.63789e-06H30.0489C32.7364 2.63789e-06 35.1659 1.58934 36.2248 4.04L38.3533 8.968C38.5549 9.43467 38.9177 9.81867 39.3746 10.0453C40.7183 10.712 41.6724 11.952 41.968 13.4107L42.8683 17.888C42.957 18.3173 43 18.7547 43 19.1947V20.296C43 22.4667 41.9519 24.4107 40.3125 25.6213V30.6667C40.3125 31.0203 40.1709 31.3594 39.9189 31.6095C39.6669 31.8595 39.3251 32 38.9688 32H33.5938C33.2374 32 32.8956 31.8595 32.6436 31.6095C32.3916 31.3594 32.25 31.0203 32.25 30.6667V27.0987C28.7778 27.2267 24.8728 27.3333 21.5 27.3333C18.1272 27.3333 14.2223 27.2267 10.75 27.0987V30.6667C10.75 31.0203 10.6084 31.3594 10.3564 31.6095C10.1044 31.8595 9.76264 32 9.40625 32H4.03125C3.67487 32 3.33308 31.8595 3.08108 31.6095C2.82907 31.3594 2.6875 31.0203 2.6875 30.6667V25.6213C1.04813 24.4107 0 22.4667 0 20.296V19.1947C0.000451044 18.7559 0.0445608 18.3182 0.131688 17.888L1.032 13.408C1.32763 11.952 2.28169 10.7093 3.62275 10.0453C4.08176 9.81772 4.44457 9.436 4.64669 8.968L6.77519 4.04H6.76981ZM8.05981 21.3333C8.77258 21.3333 9.45616 21.0524 9.96016 20.5523C10.4642 20.0522 10.7473 19.3739 10.7473 18.6667C10.7473 17.9594 10.4642 17.2811 9.96016 16.781C9.45616 16.281 8.77258 16 8.05981 16C7.34704 16 6.66347 16.281 6.15946 16.781C5.65546 17.2811 5.37231 17.9594 5.37231 18.6667C5.37231 19.3739 5.65546 20.0522 6.15946 20.5523C6.66347 21.0524 7.34704 21.3333 8.05981 21.3333ZM34.9348 21.3333C35.6476 21.3333 36.3312 21.0524 36.8352 20.5523C37.3392 20.0522 37.6223 19.3739 37.6223 18.6667C37.6223 17.9594 37.3392 17.2811 36.8352 16.781C36.3312 16.281 35.6476 16 34.9348 16C34.222 16 33.5385 16.281 33.0345 16.781C32.5305 17.2811 32.2473 17.9594 32.2473 18.6667C32.2473 19.3739 32.5305 20.0522 33.0345 20.5523C33.5385 21.0524 34.222 21.3333 34.9348 21.3333ZM16.1223 16C15.4095 16 14.726 16.281 14.222 16.781C13.718 17.2811 13.4348 17.9594 13.4348 18.6667C13.4348 19.3739 13.718 20.0522 14.222 20.5523C14.726 21.0524 15.4095 21.3333 16.1223 21.3333H26.8723C27.5851 21.3333 28.2687 21.0524 28.7727 20.5523C29.2767 20.0522 29.5598 19.3739 29.5598 18.6667C29.5598 17.9594 29.2767 17.2811 28.7727 16.781C28.2687 16.281 27.5851 16 26.8723 16H16.1223ZM7.80719 8.504C7.70214 8.71908 7.65607 8.95783 7.67361 9.1962C7.69116 9.43456 7.7717 9.66413 7.90713 9.86178C8.04256 10.0594 8.22809 10.2182 8.44504 10.322C8.66198 10.4259 8.90268 10.4712 9.14288 10.4533C11.5885 10.2587 18.146 10 21.4973 10C24.8486 10 31.4088 10.2587 33.8518 10.4533C34.092 10.4712 34.3326 10.4259 34.5496 10.322C34.7665 10.2182 34.9521 10.0594 35.0875 9.86178C35.2229 9.66413 35.3035 9.43456 35.321 9.1962C35.3386 8.95783 35.2925 8.71908 35.1874 8.504L32.6182 3.40267C32.5065 3.18148 32.335 2.99549 32.1228 2.8655C31.9106 2.73552 31.6662 2.66668 31.4169 2.66667H11.5778C11.3284 2.66668 11.084 2.73552 10.8718 2.8655C10.6597 2.99549 10.4881 3.18148 10.3764 3.40267L7.80719 8.504Z" fill="#BEBFBE"/>
</svg>
