<svg width="32" height="28" viewBox="0 0 32 28" fill="none" xmlns="http://www.w3.org/2000/svg">
<path d="M32 13C32 20.1812 24.8379 26 16.0009 26C13.6823 26 11.4824 25.6 9.49505 24.8813C8.75135 25.425 7.53892 26.1688 6.1015 26.7938C4.60159 27.4438 2.79544 28 1.0018 28C0.595569 28 0.23309 27.7563 0.076849 27.3813C-0.079392 27.0063 0.00810296 26.5813 0.289337 26.2938L0.308086 26.275C0.326834 26.2563 0.351833 26.2313 0.389331 26.1875C0.458077 26.1125 0.564321 25.9937 0.695563 25.8312C0.951798 25.5187 1.29553 25.0563 1.64551 24.4813C2.27047 23.4438 2.86419 22.0812 2.98293 20.55C1.10804 18.425 0.00185334 15.8188 0.00185334 13C0.00185334 5.81875 7.16394 0 16.0009 0C24.8379 0 32 5.81875 32 13Z" fill="#BEBFBE"/>
</svg>
