<svg width="28" height="32" viewBox="0 0 28 32" fill="none" xmlns="http://www.w3.org/2000/svg">
<path d="M4 2C4 0.89375 3.10625 0 2 0C0.89375 0 0 0.89375 0 2V4V23V30C0 31.1063 0.89375 32 2 32C3.10625 32 4 31.1063 4 30V22L8.01875 20.9937C10.5875 20.35 13.3062 20.65 15.675 21.8312C18.4375 23.2125 21.6437 23.3813 24.5312 22.2938L26.7 21.4813C27.4813 21.1875 28 20.4438 28 19.6063V4.13125C28 2.69375 26.4875 1.75625 25.2 2.4L24.6 2.7C21.7063 4.15 18.3 4.15 15.4062 2.7C13.2125 1.6 10.6938 1.325 8.3125 1.91875L4 3V2Z" fill="#BEBFBE"/>
</svg>
