<svg width="36" height="32" viewBox="0 0 36 32" fill="none" xmlns="http://www.w3.org/2000/svg">
<path d="M16.2159 0.655517C15.794 0.23579 15.2218 0 14.6253 0C14.0287 0 13.4565 0.23579 13.0346 0.655517L0.329895 13.2963C0.118667 13.5065 -4.4513e-09 13.7916 0 14.0889C4.4513e-09 14.3861 0.118667 14.6712 0.329895 14.8814C0.541123 15.0916 0.82761 15.2097 1.12633 15.2097C1.42505 15.2097 1.71154 15.0916 1.92277 14.8814L2.25124 14.5523V26.4028C2.25124 27.2935 2.60679 28.1477 3.23968 28.7775C3.87257 29.4073 4.73094 29.7611 5.62598 29.7611H6.86338C6.78835 29.3926 6.75066 29.0176 6.75089 28.6417V19.4958C6.21347 19.3065 5.73299 18.9849 5.35428 18.5609C4.97557 18.1369 4.71096 17.6243 4.58516 17.071C4.45935 16.5177 4.47645 15.9416 4.63485 15.3967C4.79325 14.8517 5.08779 14.3556 5.49099 13.9545L17.5343 1.96751L16.2159 0.655517Z" fill="#BEBFBE"/>
<path d="M19.7841 2.89441C20.206 2.47468 20.7782 2.23889 21.3747 2.23889C21.9713 2.23889 22.5435 2.47468 22.9654 2.89441L26.9993 6.90874V4.01385C26.9993 3.71696 27.1178 3.43222 27.3288 3.22229C27.5397 3.01235 27.8259 2.89441 28.1242 2.89441H30.374C30.6724 2.89441 30.9585 3.01235 31.1695 3.22229C31.3804 3.43222 31.4989 3.71696 31.4989 4.01385V11.3865L35.6701 15.5352C35.8813 15.7454 36 16.0305 36 16.3278C36 16.625 35.8813 16.9101 35.6701 17.1203C35.4589 17.3305 35.1724 17.4486 34.8737 17.4486C34.5749 17.4486 34.2885 17.3305 34.0772 17.1203L33.7488 16.7912V28.6417C33.7488 29.5323 33.3932 30.3866 32.7603 31.0164C32.1274 31.6462 31.2691 32 30.374 32H12.3754C11.4804 32 10.622 31.6462 9.98915 31.0164C9.35626 30.3866 9.00071 29.5323 9.00071 28.6417V16.7912L8.67224 17.1203C8.56765 17.2244 8.44348 17.307 8.30683 17.3633C8.17017 17.4196 8.02371 17.4486 7.8758 17.4486C7.72789 17.4486 7.58142 17.4196 7.44477 17.3633C7.30812 17.307 7.18395 17.2244 7.07936 17.1203C6.97477 17.0162 6.89181 16.8927 6.8352 16.7567C6.7786 16.6207 6.74947 16.475 6.74947 16.3278C6.74947 16.1806 6.7786 16.0348 6.8352 15.8988C6.89181 15.7628 6.97477 15.6393 7.07936 15.5352L19.7841 2.89441Z" fill="#BEBFBE"/>
</svg>
