<svg width="64" height="56" viewBox="0 0 64 56" fill="none" xmlns="http://www.w3.org/2000/svg">
<path d="M45.3333 13.3217C45.3333 19.3831 37.2111 30.1849 33.6444 34.6365C32.7889 35.7023 31.2 35.7023 30.3556 34.6365C26.7889 30.1849 18.6667 19.3831 18.6667 13.3217C18.6667 5.96148 24.6333 0 32 0C39.3667 0 45.3333 5.96148 45.3333 13.3217ZM46.2222 22.2473C46.6111 21.4813 46.9667 20.7153 47.2889 19.9604C47.3444 19.8272 47.4 19.6829 47.4556 19.5497L60.3444 14.3986C62.1 13.6992 64 14.987 64 16.8742V46.937C64 48.0249 63.3333 49.0018 62.3222 49.4126L46.2222 55.8403V22.2473ZM15.2889 15.3533C15.5556 16.9186 16.0889 18.495 16.7111 19.9604C17.0333 20.7153 17.3889 21.4813 17.7778 22.2473V50.1564L3.65556 55.807C1.9 56.5064 0 55.2186 0 53.3314V23.2687C0 22.1807 0.666667 21.2038 1.67778 20.793L15.3 15.3533H15.2889ZM36.4222 36.8568C37.9667 34.9252 40.3889 31.7835 42.6667 28.3087V55.9846L21.3333 49.8899V28.3087C23.6111 31.7835 26.0333 34.9252 27.5778 36.8568C29.8556 39.6988 34.1444 39.6988 36.4222 36.8568ZM32 16.8742C33.1787 16.8742 34.3092 16.4064 35.1427 15.5736C35.9762 14.7408 36.4444 13.6113 36.4444 12.4336C36.4444 11.2559 35.9762 10.1264 35.1427 9.29366C34.3092 8.46089 33.1787 7.99305 32 7.99305C30.8213 7.99305 29.6908 8.46089 28.8573 9.29366C28.0238 10.1264 27.5556 11.2559 27.5556 12.4336C27.5556 13.6113 28.0238 14.7408 28.8573 15.5736C29.6908 16.4064 30.8213 16.8742 32 16.8742Z" fill="url(#paint0_linear_13_13)"/>
<defs>
<linearGradient id="paint0_linear_13_13" x1="1.04308e-07" y1="28" x2="64" y2="28" gradientUnits="userSpaceOnUse">
<stop stop-color="#1AFF12"/>
<stop offset="1" stop-color="#12FFAD"/>
</linearGradient>
</defs>
</svg>
