<svg width="32" height="32" viewBox="0 0 32 32" fill="none" xmlns="http://www.w3.org/2000/svg">
<path fill-rule="evenodd" clip-rule="evenodd" d="M32 0.999434C31.9999 0.851537 31.967 0.705501 31.9037 0.571848C31.8404 0.438194 31.7482 0.32025 31.6338 0.226513C31.5194 0.132775 31.3856 0.065579 31.2422 0.0297645C31.0987 -0.00605002 30.949 -0.00959092 30.804 0.0193969L21 1.97947L11.196 0.0193969C11.0666 -0.00646557 10.9334 -0.00646557 10.804 0.0193969L0.804 2.01947C0.57739 2.06477 0.373461 2.18715 0.226887 2.36582C0.0803122 2.54449 0.000139564 2.76841 0 2.99951L0 31.0006C8.93055e-05 31.1485 0.0329804 31.2945 0.0963035 31.4282C0.159627 31.5618 0.251805 31.6798 0.366199 31.7735C0.480592 31.8672 0.614352 31.9344 0.757841 31.9702C0.901331 32.0061 1.05098 32.0096 1.196 31.9806L11 30.0205L20.804 31.9806C20.9334 32.0064 21.0666 32.0064 21.196 31.9806L31.196 29.9805C31.4226 29.9352 31.6265 29.8128 31.7731 29.6342C31.9197 29.4555 31.9999 29.2316 32 29.0005V0.999434ZM10 28.1805V2.21948L11 2.01947L12 2.21948V28.1805L11.196 28.0205C11.0666 27.9945 10.9334 27.9945 10.804 28.0205L10 28.1805ZM20 29.7805V3.81954L20.804 3.97955C20.9334 4.00541 21.0666 4.00541 21.196 3.97955L22 3.81954V29.7805L21 29.9805L20 29.7805Z" fill="#BEBFBE"/>
</svg>
