<svg width="32" height="28" viewBox="0 0 32 28" fill="none" xmlns="http://www.w3.org/2000/svg">
<path d="M27.3062 4.70255C24.3594 1.7447 20.3896 0.0590352 16.235 0.00152137C12.0805 -0.0559925 8.0664 1.51914 5.04044 4.39431C2.01447 7.26948 0.213484 11.2196 0.0177898 15.4106C-0.177904 19.6015 1.24701 23.7053 3.99164 26.8552L4.00365 26.8687C4.02567 26.8923 4.04636 26.9165 4.07038 26.9394C4.11977 26.996 4.17582 27.0601 4.24188 27.1268C4.50097 27.4048 4.81411 27.6259 5.1617 27.7762C5.50929 27.9264 5.88385 28.0026 6.26194 27.9999C6.64003 27.9973 7.01351 27.9158 7.359 27.7607C7.70449 27.6056 8.01455 27.3801 8.26978 27.0985C9.25183 26.0207 10.4446 25.1604 11.7728 24.5719C13.1009 23.9834 14.5355 23.6796 15.9859 23.6796C17.4363 23.6796 18.8709 23.9834 20.199 24.5719C21.5272 25.1604 22.72 26.0207 23.702 27.0985C23.9591 27.3816 24.2717 27.6078 24.6199 27.7627C24.9681 27.9175 25.3443 27.9977 25.7248 27.998C26.1052 27.9984 26.4816 27.919 26.8301 27.7649C27.1786 27.6107 27.4916 27.3852 27.7493 27.1025L27.9635 26.8667L27.9755 26.8532C30.6798 23.7696 32.1166 19.7599 31.9926 15.6429C31.8686 11.5258 30.1931 7.61179 27.3082 4.69985L27.3062 4.70255ZM14.9142 5.35955C14.9142 5.0736 15.0267 4.79937 15.2269 4.59718C15.4272 4.39499 15.6987 4.2814 15.9819 4.2814C16.2651 4.2814 16.5366 4.39499 16.7369 4.59718C16.9371 4.79937 17.0496 5.0736 17.0496 5.35955V7.51585C17.0496 7.8018 16.9371 8.07603 16.7369 8.27822C16.5366 8.48041 16.2651 8.594 15.9819 8.594C15.6987 8.594 15.4272 8.48041 15.2269 8.27822C15.0267 8.07603 14.9142 7.8018 14.9142 7.51585V5.35955ZM7.44031 17.2192H5.30491C5.02174 17.2192 4.75017 17.1056 4.54993 16.9034C4.3497 16.7012 4.23721 16.427 4.23721 16.1411C4.23721 15.8551 4.3497 15.5809 4.54993 15.3787C4.75017 15.1765 5.02174 15.0629 5.30491 15.0629H7.44031C7.72348 15.0629 7.99505 15.1765 8.19528 15.3787C8.39552 15.5809 8.50801 15.8551 8.50801 16.1411C8.50801 16.427 8.39552 16.7012 8.19528 16.9034C7.99505 17.1056 7.72348 17.2192 7.44031 17.2192ZM10.6968 10.8042C10.4966 11.0063 10.2251 11.1197 9.94206 11.1197C9.65901 11.1197 9.38754 11.0063 9.18733 10.8042L7.6772 9.27998C7.47695 9.07776 7.36445 8.8035 7.36445 8.51752C7.36445 8.23155 7.47695 7.95728 7.6772 7.75507C7.87746 7.55285 8.14906 7.43925 8.43227 7.43925C8.71547 7.43925 8.98707 7.55285 9.18733 7.75507L10.6968 9.27998C10.8969 9.48215 11.0093 9.75628 11.0093 10.0421C11.0093 10.3279 10.8969 10.602 10.6968 10.8042ZM20.6598 12.3608L17.49 17.4483C17.3603 17.6298 17.2026 17.7891 17.0229 17.92C16.589 18.2257 16.0533 18.3462 15.532 18.2554C15.0106 18.1647 14.5458 17.87 14.2383 17.4353C13.9308 17.0006 13.8055 16.461 13.8895 15.9336C13.9736 15.4061 14.2603 14.9335 14.6873 14.6182L19.7255 11.4174C19.84 11.3368 19.9763 11.2936 20.1159 11.2936C20.2555 11.2936 20.3917 11.3368 20.5063 11.4174C20.6501 11.5223 20.747 11.6804 20.7757 11.8571C20.8045 12.0339 20.7628 12.215 20.6598 12.3608ZM22.7765 10.8042C22.5746 10.9979 22.3058 11.1042 22.0274 11.1006C21.749 11.097 21.483 10.9838 21.2861 10.7849C21.0892 10.5861 20.977 10.3175 20.9735 10.0364C20.9699 9.75524 21.0752 9.48381 21.267 9.27998L22.7765 7.75507C22.9767 7.55285 23.2483 7.43925 23.5315 7.43925C23.8147 7.43925 24.0863 7.55285 24.2866 7.75507C24.4868 7.95728 24.5993 8.23155 24.5993 8.51752C24.5993 8.8035 24.4868 9.07776 24.2866 9.27998L22.7765 10.8042ZM26.6589 17.2192H24.5235C24.2403 17.2192 23.9687 17.1056 23.7685 16.9034C23.5683 16.7012 23.4558 16.427 23.4558 16.1411C23.4558 15.8551 23.5683 15.5809 23.7685 15.3787C23.9687 15.1765 24.2403 15.0629 24.5235 15.0629H26.6589C26.9421 15.0629 27.2136 15.1765 27.4139 15.3787C27.6141 15.5809 27.7266 15.8551 27.7266 16.1411C27.7266 16.427 27.6141 16.7012 27.4139 16.9034C27.2136 17.1056 26.9421 17.2192 26.6589 17.2192Z" fill="#BEBFBE"/>
</svg>
