<svg width="41" height="32" viewBox="0 0 41 32" fill="none" xmlns="http://www.w3.org/2000/svg">
<path d="M18.2222 0H12.8979C10.9689 0 9.24635 1.22143 8.60573 3.04286L0.22066 26.8C0.0782986 27.2143 0 27.6571 0 28.1C0 30.25 1.74392 32 3.88646 32H18.2222V27.4286C18.2222 26.1643 19.2401 25.1429 20.5 25.1429C21.7599 25.1429 22.7778 26.1643 22.7778 27.4286V32H37.1135C39.2632 32 41 30.25 41 28.1C41 27.6571 40.9217 27.2143 40.7793 26.8L32.3943 3.04286C31.7465 1.22143 30.0311 0 28.1021 0H22.7778V4.57143C22.7778 5.83571 21.7599 6.85714 20.5 6.85714C19.2401 6.85714 18.2222 5.83571 18.2222 4.57143V0ZM22.7778 13.7143V18.2857C22.7778 19.55 21.7599 20.5714 20.5 20.5714C19.2401 20.5714 18.2222 19.55 18.2222 18.2857V13.7143C18.2222 12.45 19.2401 11.4286 20.5 11.4286C21.7599 11.4286 22.7778 12.45 22.7778 13.7143Z" fill="#BEBFBE"/>
</svg>
