<svg width="32" height="28" viewBox="0 0 32 28" fill="none" xmlns="http://www.w3.org/2000/svg">
<path d="M19.5875 0.0575291C21.2125 0.382529 22.2688 1.96378 21.9438 3.58878L21.8 4.30128C21.4688 5.97003 20.8563 7.55753 20 9.00128H29C30.6562 9.00128 32 10.345 32 12.0013C32 13.1575 31.3438 14.1638 30.3813 14.6638C31.0625 15.2138 31.5 16.0575 31.5 17.0013C31.5 18.4638 30.45 19.6825 29.0688 19.945C29.3438 20.4013 29.5 20.9325 29.5 21.5013C29.5 22.8325 28.6313 23.9638 27.4312 24.3513C27.475 24.5575 27.5 24.7763 27.5 25.0013C27.5 26.6575 26.1562 28.0013 24.5 28.0013H18.4062C17.2188 28.0013 16.0625 27.6513 15.075 26.995L12.6687 25.3888C11 24.2763 10 22.4013 10 20.395V18.0013V15.0013V13.445C10 11.62 10.8313 9.90128 12.25 8.75753L12.7125 8.38878C14.3687 7.06378 15.5 5.20128 15.9125 3.12628L16.0562 2.41378C16.3813 0.788779 17.9625 -0.267471 19.5875 0.0575291ZM2 10.0013H6C7.10625 10.0013 8 10.895 8 12.0013V26.0013C8 27.1075 7.10625 28.0013 6 28.0013H2C0.89375 28.0013 0 27.1075 0 26.0013V12.0013C0 10.895 0.89375 10.0013 2 10.0013Z" fill="#BEBFBE"/>
</svg>
