<svg width="42" height="32" viewBox="0 0 42 32" fill="none" xmlns="http://www.w3.org/2000/svg">
<path d="M30.3893 13.3324H40.836C40.9622 13.3324 41.0858 13.3686 41.1923 13.4366C41.2988 13.5046 41.3838 13.6017 41.4373 13.7164C41.4908 13.8312 41.5107 13.9589 41.4945 14.0846C41.4784 14.2103 41.4269 14.3287 41.3461 14.4261L36.1228 20.7217C36.0604 20.7968 35.9824 20.8572 35.8943 20.8986C35.8061 20.94 35.71 20.9615 35.6127 20.9615C35.5153 20.9615 35.4192 20.94 35.331 20.8986C35.2429 20.8572 35.1649 20.7968 35.1026 20.7217L29.8792 14.4261C29.7984 14.3287 29.7469 14.2103 29.7308 14.0846C29.7147 13.9589 29.7345 13.8312 29.788 13.7164C29.8416 13.6017 29.9265 13.5046 30.033 13.4366C30.1395 13.3686 30.2631 13.3324 30.3893 13.3324ZM1.16396 18.6677H11.6107C11.7369 18.6676 11.8605 18.6315 11.967 18.5634C12.0735 18.4954 12.1584 18.3983 12.212 18.2836C12.2655 18.1688 12.2853 18.0411 12.2692 17.9154C12.2531 17.7897 12.2016 17.6713 12.1208 17.5739L6.89744 11.2783C6.83511 11.2032 6.7571 11.1428 6.66895 11.1014C6.5808 11.06 6.48466 11.0385 6.38733 11.0385C6.29 11.0385 6.19385 11.06 6.1057 11.1014C6.01755 11.1428 5.93955 11.2032 5.87721 11.2783L0.653849 17.5739C0.573074 17.6713 0.521601 17.7897 0.505457 17.9154C0.489313 18.0411 0.509165 18.1688 0.56269 18.2836C0.616215 18.3983 0.701196 18.4954 0.807683 18.5634C0.91417 18.6315 1.03775 18.6676 1.16396 18.6677Z" fill="white"/>
<path fill-rule="evenodd" clip-rule="evenodd" d="M21 2.66176C16.8766 2.66176 13.1889 4.54778 10.7525 7.51154C10.6437 7.65312 10.5077 7.77129 10.3525 7.85903C10.1973 7.94676 10.0262 8.00227 9.84918 8.02225C9.67219 8.04223 9.49302 8.02627 9.3223 7.97533C9.15159 7.92438 8.99282 7.83949 8.85543 7.7257C8.71804 7.61191 8.60485 7.47155 8.52257 7.31295C8.4403 7.15435 8.39063 6.98076 8.37651 6.80251C8.36239 6.62425 8.38412 6.44496 8.4404 6.2753C8.49667 6.10564 8.58635 5.94908 8.7041 5.81492C10.6494 3.45012 13.2303 1.6961 16.1397 0.761472C19.0492 -0.173153 22.1648 -0.249048 25.1159 0.542814C28.0671 1.33468 30.7296 2.96097 32.7869 5.22827C34.8441 7.49556 36.2095 10.3084 36.7206 13.3324H34.0186C33.4051 10.3201 31.7745 7.61289 29.4024 5.66858C27.0302 3.72427 24.0622 2.66213 21 2.66176ZM7.98144 18.6677C8.48441 21.1342 9.67213 23.4076 11.4074 25.2251C13.1426 27.0426 15.3546 28.3301 17.7878 28.9389C20.2209 29.5476 22.776 29.4527 25.1577 28.6652C27.5394 27.8777 29.6506 26.4297 31.2475 24.4885C31.3563 24.3469 31.4923 24.2287 31.6475 24.141C31.8027 24.0532 31.9738 23.9977 32.1508 23.9778C32.3278 23.9578 32.507 23.9737 32.6777 24.0247C32.8484 24.0756 33.0072 24.1605 33.1446 24.2743C33.282 24.3881 33.3951 24.5285 33.4774 24.6871C33.5597 24.8456 33.6094 25.0192 33.6235 25.1975C33.6376 25.3758 33.6159 25.555 33.5596 25.7247C33.5033 25.8944 33.4136 26.0509 33.2959 26.1851C31.3506 28.5499 28.7697 30.3039 25.8603 31.2385C22.9508 32.1732 19.8352 32.2491 16.8841 31.4572C13.9329 30.6653 11.2704 29.039 9.21312 26.7717C7.15588 24.5044 5.79052 21.6916 5.27942 18.6677H7.98144Z" fill="white"/>
</svg>
